<svg width="138" height="24" viewBox="0 0 138 24"  xmlns="http://www.w3.org/2000/svg">
<g opacity="0.4">
<path d="M13.7 20.6L15.6 18.8C15.7801 18.6099 15.8865 18.3617 15.9 18.1V12.8L10.2 18.5L12.3 20.6C12.6888 20.9812 13.3111 20.9812 13.7 20.6Z" />
<path d="M3.79997 12.1L5.99997 14.3L11.6 8.60001H6.39997C6.13374 8.59149 5.87741 8.70135 5.69997 8.90001L3.79997 10.7C3.49954 11.1183 3.49954 11.6817 3.79997 12.1Z" />
<path d="M16.6 8.90002C17.1523 8.90002 17.6 8.45231 17.6 7.90002C17.6 7.34774 17.1523 6.90002 16.6 6.90002C16.0477 6.90002 15.6 7.34774 15.6 7.90002C15.6 8.45231 16.0477 8.90002 16.6 8.90002Z" />
<path d="M7.39997 21.3C6.59997 22.1 4.49997 22.2 3.29997 22.1C2.80291 22.1 2.39997 21.6971 2.39997 21.2C2.29997 20 2.29997 17.9 3.09997 17.1C3.66475 16.5196 4.44016 16.1923 5.24997 16.1923C6.05978 16.1923 6.8352 16.5196 7.39997 17.1C8.49284 18.2867 8.49284 20.1133 7.39997 21.3Z" />
</g>
<path fill-rule="evenodd" clip-rule="evenodd" d="M21.6 4.09998L20.2 8.39998L19.9 8.79998L10.2 18.5L6 14.3L15.7 4.49998C15.7944 4.37408 15.9426 4.29998 16.1 4.29998L20.3 2.89998C20.6498 2.77618 21.0393 2.85621 21.312 3.10787C21.5846 3.35953 21.6955 3.74145 21.6 4.09998ZM15.6742 7.50778C15.5206 7.88391 15.6099 8.31558 15.9 8.59998C16.2888 8.98113 16.9112 8.98113 17.3 8.59998C17.5901 8.31558 17.6794 7.88391 17.5258 7.50778C17.3722 7.13165 17.0063 6.88584 16.6 6.88584C16.1937 6.88584 15.8278 7.13165 15.6742 7.50778Z" />
<path d="M45.7255 11.5423H47.6392C47.2227 9.13352 45.1641 7.46733 42.4957 7.46733C39.2962 7.46733 36.9599 9.87607 36.9599 13.8242C36.9599 17.7362 39.2298 20.169 42.5803 20.169C45.5806 20.169 47.7237 18.201 47.7237 15.0799V13.6733H42.864V15.2127H45.9187C45.8764 17.2049 44.5604 18.4666 42.5803 18.4666C40.4009 18.4666 38.8132 16.8185 38.8132 13.8121C38.8132 10.8178 40.413 9.16974 42.5078 9.16974C44.1499 9.16974 45.2607 10.0753 45.7255 11.5423ZM60.0708 7.63636H58.2235V16.7159H58.1088L51.8183 7.63636H50.0917V20H51.9571V10.9325H52.0718L58.3563 20H60.0708V7.63636ZM66.7944 20C70.5614 20 72.7408 17.6637 72.7408 13.8001C72.7408 9.95454 70.5614 7.63636 66.9212 7.63636H62.7919V20H66.7944ZM64.6573 18.37V9.26633H66.8065C69.511 9.26633 70.9055 10.8842 70.9055 13.8001C70.9055 16.728 69.511 18.37 66.6918 18.37H64.6573ZM87.9267 11.5423H89.8404C89.4238 9.13352 87.3652 7.46733 84.6969 7.46733C81.4973 7.46733 79.161 9.87607 79.161 13.8242C79.161 17.7362 81.4309 20.169 84.7814 20.169C87.7818 20.169 89.9249 18.201 89.9249 15.0799V13.6733H85.0652V15.2127H88.1199C88.0776 17.2049 86.7615 18.4666 84.7814 18.4666C82.6021 18.4666 81.0144 16.8185 81.0144 13.8121C81.0144 10.8178 82.6142 9.16974 84.709 9.16974C86.351 9.16974 87.4618 10.0753 87.9267 11.5423ZM92.148 20H93.953V14.3374C93.953 13.1239 94.8888 12.2486 96.1686 12.2486C96.5429 12.2486 96.9655 12.315 97.1104 12.3572V10.6307C96.9292 10.6065 96.5731 10.5884 96.3437 10.5884C95.257 10.5884 94.3273 11.2042 93.9893 12.2003H93.8927V10.7273H92.148V20ZM102.246 20.1871C104.86 20.1871 106.569 18.2734 106.569 15.4059C106.569 12.5202 104.86 10.6065 102.246 10.6065C99.6323 10.6065 97.9238 12.5202 97.9238 15.4059C97.9238 18.2734 99.6323 20.1871 102.246 20.1871ZM102.252 18.6719C100.544 18.6719 99.747 17.1808 99.747 15.3999C99.747 13.625 100.544 12.1158 102.252 12.1158C103.949 12.1158 104.746 13.625 104.746 15.3999C104.746 17.1808 103.949 18.6719 102.252 18.6719ZM110.312 20H112.147L114.03 13.305H114.169L116.053 20H117.894L120.617 10.7273H118.751L116.946 17.5067H116.856L115.045 10.7273H113.179L111.356 17.5369H111.265L109.448 10.7273H107.583L110.312 20ZM126.658 10.7273H124.756V8.50568H122.951V10.7273H121.593V12.1761H122.951V17.6516C122.945 19.3359 124.231 20.1509 125.656 20.1207C126.229 20.1147 126.616 20.006 126.827 19.9276L126.501 18.4364C126.38 18.4606 126.157 18.5149 125.867 18.5149C125.282 18.5149 124.756 18.3217 124.756 17.2773V12.1761H126.658V10.7273ZM130.659 14.4943C130.659 13.0153 131.595 12.1701 132.881 12.1701C134.124 12.1701 134.867 12.9609 134.867 14.3192V20H136.672V14.1019C136.672 11.7898 135.404 10.6065 133.496 10.6065C132.054 10.6065 131.184 11.2344 130.75 12.2365H130.635V7.63636H128.854V20H130.659V14.4943Z" />
</svg>
