<svg width="99" height="33" viewBox="0 0 99 33" fill="none" xmlns="http://www.w3.org/2000/svg">
<path d="M41.9381 16.9763C41.9381 21.6175 38.3072 25.0376 33.8514 25.0376C29.3955 25.0376 25.7646 21.6175 25.7646 16.9763C25.7646 12.3024 29.3955 8.91504 33.8514 8.91504C38.3072 8.91504 41.9381 12.3024 41.9381 16.9763ZM38.3981 16.9763C38.3981 14.076 36.2937 12.0916 33.8514 12.0916C31.409 12.0916 29.3046 14.076 29.3046 16.9763C29.3046 19.8475 31.409 21.861 33.8514 21.861C36.2937 21.861 38.3981 19.8439 38.3981 16.9763Z" fill="#B3B7BC"/>
<path d="M59.3836 16.9763C59.3836 21.6175 55.7528 25.0376 51.2969 25.0376C46.841 25.0376 43.2102 21.6175 43.2102 16.9763C43.2102 12.306 46.841 8.91504 51.2969 8.91504C55.7528 8.91504 59.3836 12.3024 59.3836 16.9763ZM55.8436 16.9763C55.8436 14.076 53.7393 12.0916 51.2969 12.0916C48.8545 12.0916 46.7502 14.076 46.7502 16.9763C46.7502 19.8475 48.8545 21.861 51.2969 21.861C53.7393 21.861 55.8436 19.8439 55.8436 16.9763Z" fill="#B3B7BC"/>
<path d="M76.1022 9.40206V23.8746C76.1022 29.8278 72.5913 32.2593 68.4408 32.2593C64.5337 32.2593 62.1822 29.6461 61.2954 27.509L64.3774 26.2261C64.9262 27.5381 66.271 29.0864 68.4371 29.0864C71.0939 29.0864 72.7403 27.4472 72.7403 24.3616V23.2022H72.6168C71.8245 24.1798 70.298 25.034 68.3717 25.034C64.3411 25.034 60.6484 21.523 60.6484 17.0054C60.6484 12.455 64.3411 8.91504 68.3717 8.91504C70.2943 8.91504 71.8208 9.76914 72.6168 10.7177H72.7403V9.40569H76.1022V9.40206ZM72.9911 17.0054C72.9911 14.1669 71.0976 12.0916 68.6879 12.0916C66.2455 12.0916 64.1993 14.1669 64.1993 17.0054C64.1993 19.8148 66.2455 21.8611 68.6879 21.8611C71.0976 21.8611 72.9911 19.8148 72.9911 17.0054Z" fill="#B3B7BC"/>
<path d="M81.645 0.919434V24.5435H78.1922V0.919434H81.645Z" fill="#B3B7BC"/>
<path d="M95.1011 19.6302L97.8488 21.462C96.962 22.774 94.8249 25.0347 91.1323 25.0347C86.5529 25.0347 83.1328 21.4947 83.1328 16.9734C83.1328 12.1795 86.5819 8.91211 90.7361 8.91211C94.9194 8.91211 96.9656 12.2413 97.6344 14.0404L98.0015 14.9562L87.2252 19.4194C88.0503 21.0367 89.3332 21.8618 91.1323 21.8618C92.935 21.8618 94.1853 20.9749 95.1011 19.6302ZM86.6437 16.7299L93.8473 13.7387C93.4511 12.7319 92.259 12.0305 90.8561 12.0305C89.057 12.0305 86.5529 13.6188 86.6437 16.7299Z" fill="#B3B7BC"/>
<path d="M12.6952 14.8796V11.4595H24.2202C24.3328 12.0556 24.391 12.7607 24.391 13.5239C24.391 16.0898 23.6895 19.2627 21.4289 21.5234C19.23 23.8131 16.4206 25.0343 12.6989 25.0343C5.80063 25.0343 0 19.4154 0 12.5171C0 5.6189 5.80063 0 12.6989 0C16.5151 0 19.2337 1.4974 21.2762 3.44912L18.8629 5.86241C17.3982 4.48858 15.4138 3.42004 12.6952 3.42004C7.65785 3.42004 3.71807 7.47976 3.71807 12.5171C3.71807 17.5545 7.65785 21.6142 12.6952 21.6142C15.9626 21.6142 17.8235 20.3022 19.0156 19.1101C19.9824 18.1433 20.6184 16.7622 20.8692 14.8759L12.6952 14.8796Z" fill="#B3B7BC"/>
</svg>
